<svg width="18" height="16" viewBox="0 0 18 16" fill="none" xmlns="http://www.w3.org/2000/svg">
<path d="M6.11429 10.1791C6.25474 8.64035 6.39416 7.11707 6.53461 5.58347H11.6053C11.7225 7.10984 11.8392 8.63467 11.9575 10.1791H6.11429Z" fill="#F3F3F3"/>
<path d="M6.1179 4.17121C5.96196 5.879 5.80705 7.58404 5.65317 9.28632H0.832898C0.913968 8.79991 0.991424 8.32692 1.07198 7.85496C1.27284 6.67403 1.47681 5.4931 1.67561 4.31166C1.69213 4.212 1.70659 4.15055 1.83052 4.15107C3.22884 4.1552 4.62716 4.1564 6.02548 4.15468C6.05663 4.15802 6.08752 4.16354 6.1179 4.17121Z" fill="#F3F3F3"/>
<path d="M18 14.4928V15.7724H0V14.4928H18Z" fill="#F3F3F3"/>
<path d="M6.58625 5.01546C6.73858 3.34244 6.88987 1.68284 7.04271 0.00671301H11.1783C11.3048 1.66528 11.4318 3.33108 11.5609 5.01546H6.58625Z" fill="#F3F3F3"/>
<path d="M0.0438914 13.9259C0.157492 13.2484 0.266962 12.5911 0.378497 11.9342C0.490032 11.2774 0.604665 10.6335 0.711552 9.98187C0.728076 9.8786 0.759058 9.83884 0.866462 9.83935C2.41315 9.84176 3.95967 9.84279 5.50601 9.84245C5.5375 9.84563 5.56872 9.85098 5.59947 9.85846C5.47606 11.2144 5.35265 12.5653 5.22872 13.9259H0.0438914Z" fill="#F3F3F3"/>
<path d="M12.243 13.9274H5.77246C5.86953 12.8611 5.96609 11.8052 6.06317 10.7456H12.0014C12.0809 11.8057 12.1594 12.858 12.243 13.9274Z" fill="#F3F3F3"/>
<path d="M12.493 10.0924H17.2998C17.5167 11.3693 17.733 12.6417 17.9515 13.9264H12.7878C12.6892 12.6525 12.5921 11.3833 12.493 10.0924Z" fill="#F3F3F3"/>
<path d="M16.768 6.95906H12.2544C12.1429 5.50188 12.0318 4.05244 11.9182 2.56686H12.1465C13.3584 2.56686 14.5734 2.56995 15.7827 2.56272C15.9593 2.56272 16.0321 2.59681 16.0636 2.78993C16.2903 4.1743 16.5289 5.55558 16.768 6.95906Z" fill="#F3F3F3"/>
<path d="M1.79695 3.60062C2.0035 2.39387 2.20488 1.2021 2.40885 0.00206433H6.4995C6.39003 1.20107 6.28159 2.39542 6.17161 3.60062H1.79695Z" fill="#F3F3F3"/>
<path d="M12.243 7.51664H16.8072L17.1511 9.53512H12.3969L12.243 7.51664Z" fill="#F3F3F3"/>
<path d="M11.7225 0H15.5834C15.6965 0.662497 15.8101 1.32809 15.9268 2.01021H11.878C11.8263 1.34926 11.7752 0.684701 11.7225 0Z" fill="#F3F3F3"/>
</svg>
