<svg width="36" height="36" viewBox="0 0 36 36" fill="none" xmlns="http://www.w3.org/2000/svg">
<path d="M29.2496 11.2498L27.0146 13.4848L22.5146 8.98482L24.7496 6.74982C25.3796 6.11982 26.1896 5.81982 26.9996 5.81982C27.8096 5.81982 28.6196 6.11982 29.2496 6.74982C30.4946 7.99482 30.4946 10.0048 29.2496 11.2498Z" fill="white"/>
<path d="M25.9652 14.5498L9.75016 30.7498C8.50516 31.9948 6.49516 31.9948 5.25016 30.7498C4.00516 29.5048 4.00516 27.4948 5.25016 26.2498L21.4652 10.0498L25.9652 14.5498Z" fill="white"/>
<path d="M14.9248 5.25027L15.5398 3.16527C15.5998 2.97027 15.5398 2.76027 15.4048 2.61027C15.2698 2.46027 15.0298 2.40027 14.8348 2.46027L12.7498 3.07527L10.6648 2.46027C10.4698 2.40027 10.2598 2.46027 10.1098 2.59527C9.95978 2.74527 9.91478 2.95527 9.97478 3.15027L10.5748 5.25027L9.95978 7.33527C9.89978 7.53027 9.95978 7.74027 10.0948 7.89027C10.2448 8.04027 10.4548 8.08527 10.6498 8.02527L12.7498 7.42527L14.8348 8.04027C14.8948 8.05527 14.9398 8.07027 14.9998 8.07027C15.1498 8.07027 15.2848 8.01027 15.4048 7.90527C15.5548 7.75527 15.5998 7.54527 15.5398 7.35027L14.9248 5.25027Z" fill="white"/>
<path d="M8.92478 14.2503L9.53978 12.1653C9.59978 11.9703 9.53978 11.7603 9.40478 11.6103C9.25478 11.4603 9.04478 11.4153 8.84978 11.4753L6.74978 12.0753L4.66478 11.4603C4.46978 11.4003 4.25978 11.4603 4.10978 11.5953C3.95978 11.7453 3.91478 11.9553 3.97478 12.1503L4.57478 14.2503L3.95978 16.3353C3.89978 16.5303 3.95978 16.7403 4.09478 16.8903C4.24478 17.0403 4.45478 17.0853 4.64978 17.0253L6.73478 16.4103L8.81978 17.0253C8.86478 17.0403 8.92478 17.0403 8.98478 17.0403C9.13478 17.0403 9.26978 16.9803 9.38978 16.8753C9.53978 16.7253 9.58478 16.5153 9.52478 16.3203L8.92478 14.2503Z" fill="white"/>
<path d="M31.4246 21.7499L32.0396 19.6649C32.0996 19.4699 32.0396 19.2599 31.9046 19.1099C31.7546 18.9599 31.5446 18.9149 31.3496 18.9749L29.2646 19.5899L27.1796 18.9749C26.9846 18.9149 26.7746 18.9749 26.6246 19.1099C26.4746 19.2599 26.4296 19.4699 26.4896 19.6649L27.1046 21.7499L26.4896 23.8349C26.4296 24.0299 26.4896 24.2399 26.6246 24.3899C26.7746 24.5399 26.9846 24.5849 27.1796 24.5249L29.2646 23.9099L31.3496 24.5249C31.3946 24.5399 31.4546 24.5399 31.5146 24.5399C31.6646 24.5399 31.7996 24.4799 31.9196 24.3749C32.0696 24.2249 32.1146 24.0149 32.0546 23.8199L31.4246 21.7499Z" fill="white"/>
</svg>
