<svg width="20" height="20" viewBox="0 0 20 20" fill="none" xmlns="http://www.w3.org/2000/svg">
<path fill-rule="evenodd" clip-rule="evenodd" d="M6.67245 5.54199H13.3277C16.7026 5.54199 18.39 5.54199 19.3379 6.52883C20.2857 7.51566 20.0627 9.04032 19.6167 12.0895L19.1937 14.9811C18.8439 17.3724 18.6691 18.568 17.7719 19.284C16.8747 20 15.5513 20 12.9047 20H7.09542C4.44885 20 3.12556 20 2.22836 19.284C1.33116 18.568 1.15627 17.3724 0.806488 14.9811L0.383514 12.0895C-0.0625201 9.04032 -0.285532 7.51566 0.662326 6.52883C1.61018 5.54199 3.29761 5.54199 6.67245 5.54199ZM6.00005 16.0002C6.00005 15.5859 6.37316 15.2501 6.83339 15.2501H13.1668C13.627 15.2501 14.0001 15.5859 14.0001 16.0002C14.0001 16.4144 13.627 16.7502 13.1668 16.7502H6.83339C6.37316 16.7502 6.00005 16.4144 6.00005 16.0002Z" fill="#F3FCFF"/>
<g opacity="0.4">
<path d="M6.51057 7.2929e-06H13.4907C13.7232 -5.27074e-05 13.9015 -9.26503e-05 14.0573 0.0151474C15.1651 0.123518 16.0718 0.789581 16.4564 1.68679H3.54492C3.92945 0.789581 4.8362 0.123518 5.94403 0.0151474C6.09985 -9.26503e-05 6.27809 -5.27074e-05 6.51057 7.2929e-06Z" fill="#F3FCFF"/>
</g>
<g opacity="0.7">
<path d="M4.31121 2.72266C2.92058 2.72266 1.7803 3.56241 1.39976 4.67646C1.39183 4.69968 1.38423 4.72303 1.37695 4.74648C1.77511 4.62591 2.18948 4.54714 2.60895 4.49336C3.68933 4.35485 5.05469 4.35492 6.64073 4.35501H6.75917H13.5329C15.1189 4.35492 16.4843 4.35485 17.5646 4.49336C17.9841 4.54714 18.3985 4.62591 18.7967 4.74648C18.7894 4.72303 18.7818 4.69968 18.7739 4.67646C18.3933 3.56241 17.253 2.72266 15.8624 2.72266H4.31121Z" fill="#F3FCFF"/>
</g>
</svg>
