<svg width="22" height="20" viewBox="0 0 22 20" fill="none" xmlns="http://www.w3.org/2000/svg">
<path d="M1.375 8.57137L17.3057 8.57137L11.4028 2.43852C10.8659 1.88063 10.8659 0.976316 11.4028 0.418421C11.9398 -0.139474 12.8102 -0.139474 13.3472 0.418421L21.5972 8.9899L21.6917 9.09816C22.1322 9.65927 22.1006 10.487 21.5972 11.01L13.3472 19.5815L13.243 19.6797C12.7029 20.1374 11.9063 20.1045 11.4028 19.5815C10.8994 19.0584 10.8678 18.2307 11.3083 17.6696L11.4028 17.5614L17.3057 11.4285L1.375 11.4285C0.615608 11.4285 0 10.7889 0 9.99995C0 9.21096 0.615608 8.57137 1.375 8.57137Z" fill="#F3F3F3"/>
</svg>
