<svg width="21" height="20" viewBox="0 0 21 20" fill="none" xmlns="http://www.w3.org/2000/svg">
<path d="M14.6484 13.4451L12.9949 15.0982L6.07097 8.17125L7.69306 6.55131C7.97094 6.83133 8.27275 7.13564 8.57474 7.43977C8.65212 7.51763 8.72981 7.59502 8.80779 7.67193C8.92262 7.78569 9.05013 7.83123 9.17657 7.70086C9.30301 7.57049 9.24622 7.4437 9.13442 7.33172C8.80214 6.99836 8.46973 6.66554 8.1372 6.33325C8.09363 6.28968 8.05345 6.24289 7.99648 6.1811C8.0597 6.11484 8.11649 6.05305 8.17506 5.99376C9.7109 4.45793 11.2467 2.9221 12.7826 1.38627C13.7032 0.466194 14.9049 0.462801 15.8232 1.37948C17.1491 2.70327 18.4737 4.02873 19.797 5.35586C20.6594 6.22075 20.6909 7.43263 19.8406 8.29519C18.2553 9.90246 16.6509 11.4919 15.0545 13.0891C15.0329 13.1109 15.0072 13.1284 14.9161 13.2063C14.8722 13.1318 14.8413 13.0441 14.7824 12.9847C13.9147 12.1117 13.0447 11.241 12.1723 10.3723C12.117 10.3171 12.0652 10.2332 11.9991 10.2198C11.9052 10.2005 11.7727 10.2019 11.7093 10.2555C11.6578 10.2995 11.6648 10.4382 11.6827 10.5275C11.6943 10.5864 11.7694 10.6347 11.8193 10.6839C12.6947 11.5602 13.571 12.4357 14.4482 13.3106C14.5081 13.37 14.5907 13.4072 14.6484 13.4451Z" fill="#F3FCFF"/>
<path d="M12.6197 15.5268L9.7943 18.3495H10.1143C12.2073 18.3495 14.3004 18.3495 16.3936 18.3495C16.5707 18.3495 16.7788 18.312 16.8134 18.5705C16.8364 18.7412 16.6968 18.8192 16.3925 18.8194H1.24685C1.20756 18.8194 1.16845 18.8194 1.12916 18.8194C0.965399 18.814 0.822531 18.7715 0.82896 18.5719C0.834675 18.3865 0.970578 18.3495 1.1263 18.3497C1.56366 18.3497 2.00137 18.3497 2.50355 18.3497C2.4098 18.2497 2.35711 18.1902 2.30104 18.1342C1.74742 17.5793 1.18917 17.0285 0.639124 16.4699C-0.204691 15.6127 -0.217192 14.3983 0.626801 13.5477C2.26086 11.9 3.90104 10.2583 5.54736 8.62272C5.57986 8.59022 5.61629 8.56182 5.63665 8.54343C7.96023 10.8672 10.2765 13.1834 12.6197 15.5268Z" fill="#F3FCFF"/>
<path d="M3.06002 3.51143C3.06243 3.79032 2.98198 4.06365 2.82888 4.29677C2.67578 4.52989 2.45691 4.7123 2.20002 4.8209C1.94314 4.9295 1.65979 4.95939 1.3859 4.90678C1.112 4.85418 0.859894 4.72144 0.661519 4.5254C0.463145 4.32936 0.327437 4.07883 0.271595 3.80558C0.215753 3.53233 0.242291 3.24865 0.347845 2.9905C0.453399 2.73234 0.633218 2.51134 0.864512 2.35549C1.0958 2.19964 1.36816 2.11597 1.64706 2.11507C1.83159 2.11373 2.01457 2.14881 2.18552 2.21831C2.35648 2.2878 2.51203 2.39034 2.64329 2.52006C2.77455 2.64977 2.87892 2.80411 2.95043 2.97422C3.02194 3.14434 3.05918 3.3269 3.06002 3.51143Z" fill="#F3FCFF"/>
<path d="M14.1261 19.5261C15.0428 19.5261 15.9595 19.5261 16.8763 19.5261C16.9543 19.5261 17.0488 19.5082 17.1065 19.5439C17.1817 19.5916 17.2672 19.6814 17.2743 19.7604C17.2808 19.8257 17.195 19.925 17.125 19.9657C17.0577 20.0048 16.9581 19.9945 16.8725 19.9947C15.0306 19.996 13.1887 19.996 11.3467 19.9947C11.2842 19.9947 11.2039 20.0125 11.1624 19.9829C11.078 19.9218 10.9574 19.8329 10.9571 19.7552C10.9567 19.6775 11.0792 19.5889 11.166 19.5336C11.2169 19.5014 11.3035 19.5246 11.3741 19.5245L14.1261 19.5261Z" fill="#F3FCFF"/>
<path d="M19.5281 14.5855C19.5274 14.7708 19.472 14.9517 19.3686 15.1054C19.2652 15.2592 19.1187 15.3789 18.9473 15.4494C18.776 15.52 18.5877 15.5382 18.406 15.5017C18.2244 15.4653 18.0576 15.3759 17.9267 15.2448C17.7958 15.1137 17.7067 14.9467 17.6706 14.765C17.6345 14.5833 17.653 14.395 17.7238 14.2238C17.7946 14.0526 17.9146 13.9062 18.0685 13.8031C18.2224 13.7 18.4035 13.6449 18.5887 13.6445C18.7125 13.6435 18.8352 13.6672 18.9498 13.7141C19.0643 13.761 19.1684 13.8303 19.2558 13.918C19.3433 14.0056 19.4124 14.1097 19.4591 14.2243C19.5059 14.3389 19.5293 14.4617 19.5281 14.5855Z" fill="#F3FCFF"/>
<path d="M18.7175 19.5287C18.8662 19.5287 19.015 19.525 19.1639 19.5287C19.3129 19.5325 19.4213 19.6227 19.3936 19.7609C19.3758 19.848 19.2563 19.9725 19.1747 19.979C18.855 20.0037 18.5338 20.0031 18.2142 19.977C18.1373 19.9706 18.0148 19.8293 18.016 19.752C18.0173 19.6746 18.1398 19.5575 18.2271 19.5377C18.3832 19.5039 18.5541 19.5291 18.7175 19.5287Z" fill="#F3FCFF"/>
<path d="M4.11403 0.692285C4.06727 0.692124 4.02103 0.682328 3.97822 0.663506C3.93541 0.644684 3.89693 0.617242 3.86519 0.58289C3.83346 0.548539 3.80914 0.508016 3.79376 0.463849C3.77838 0.419682 3.77226 0.37282 3.77579 0.326185C3.78579 0.134742 3.93652 -0.00401862 4.13064 8.88371e-05C4.33244 0.00437488 4.47888 0.163137 4.46835 0.36601C4.45835 0.557632 4.30762 0.696392 4.11403 0.692285Z" fill="#F3FCFF"/>
<path d="M18.9404 1.63289C18.8949 1.63249 18.85 1.62315 18.8081 1.60539C18.7663 1.58763 18.7284 1.5618 18.6965 1.52938C18.6647 1.49696 18.6395 1.45858 18.6225 1.41644C18.6055 1.37429 18.5969 1.32921 18.5973 1.28376C18.5977 1.23831 18.607 1.19338 18.6248 1.15154C18.6426 1.10971 18.6684 1.07178 18.7008 1.03992C18.7332 1.00806 18.7716 0.982905 18.8138 0.965881C18.8559 0.948856 18.901 0.940299 18.9464 0.940697C19.1484 0.942304 19.2973 1.09875 19.2895 1.30144C19.2887 1.34623 19.2789 1.39041 19.2609 1.43141C19.2428 1.4724 19.2168 1.5094 19.1843 1.54024C19.1518 1.57109 19.1135 1.59516 19.0716 1.61107C19.0298 1.62697 18.9851 1.63439 18.9404 1.63289Z" fill="#F3FCFF"/>
<path d="M9.98484 1.86863C9.94007 1.86713 9.89604 1.85679 9.85529 1.83819C9.81454 1.81959 9.77787 1.79311 9.74741 1.76027C9.71694 1.72743 9.69328 1.68888 9.67779 1.64685C9.66229 1.60482 9.65528 1.56014 9.65714 1.51538C9.66089 1.31447 9.82001 1.16679 10.0223 1.17607C10.2143 1.18536 10.3534 1.33555 10.3499 1.52913C10.3459 1.73147 10.1877 1.87845 9.98484 1.86863Z" fill="#F3FCFF"/>
<path d="M1.88065 8.34663C1.88065 8.54878 1.7251 8.69862 1.52241 8.69237C1.47763 8.69174 1.43343 8.68226 1.39233 8.66447C1.35124 8.64667 1.31408 8.62092 1.28298 8.5887C1.25189 8.55648 1.22748 8.51842 1.21116 8.47672C1.19485 8.43502 1.18695 8.3905 1.18792 8.34573C1.18792 8.14393 1.34382 7.99392 1.54652 8.00017C1.59132 8.0006 1.63558 8.00995 1.67673 8.02767C1.71788 8.04539 1.75509 8.07113 1.78619 8.10337C1.81729 8.13562 1.84166 8.17374 1.85788 8.2155C1.8741 8.25726 1.88184 8.30184 1.88065 8.34663Z" fill="#F3FCFF"/>
<path d="M20.4658 11.1754C20.4628 11.3774 20.3051 11.5249 20.1024 11.5158C20.0576 11.5145 20.0136 11.5044 19.9727 11.486C19.9319 11.4676 19.8951 11.4413 19.8645 11.4086C19.8339 11.3759 19.8101 11.3375 19.7944 11.2955C19.7787 11.2536 19.7715 11.2089 19.7731 11.1642C19.7761 10.9627 19.9338 10.8147 20.1369 10.8238C20.329 10.8324 20.4687 10.9818 20.4658 11.1754Z" fill="#F3FCFF"/>
<path d="M15.2903 16.8235C15.2865 17.0255 15.1285 17.1727 14.9256 17.1628C14.8808 17.1614 14.8368 17.1511 14.796 17.1325C14.7552 17.114 14.7185 17.0875 14.688 17.0547C14.6575 17.0219 14.6338 16.9834 14.6183 16.9414C14.6028 16.8994 14.5957 16.8547 14.5975 16.81C14.6011 16.6089 14.76 16.4612 14.9624 16.4706C15.1544 16.4801 15.2936 16.6299 15.2903 16.8235Z" fill="#F3FCFF"/>
</svg>
