<svg width="25" height="20" viewBox="0 0 25 20" fill="none" xmlns="http://www.w3.org/2000/svg">
<path fill-rule="evenodd" clip-rule="evenodd" d="M12.6427 2.93649L19.8109 15.3523C19.993 15.6676 19.993 16.0285 19.8109 16.3436C19.6289 16.6589 19.3164 16.8392 18.9524 16.8392H6.33297C5.96895 16.8392 5.65646 16.6587 5.47453 16.3436C5.2926 16.0283 5.2926 15.6676 5.47453 15.3523L12.6427 2.93649Z" fill="#F3FCFF"/>
<path fill-rule="evenodd" clip-rule="evenodd" d="M2.27948 7.02419L14.2787 16.838H5.25306C4.78307 16.838 4.38715 16.5204 4.28528 16.0616L2.27948 7.02419Z" fill="#F3FCFF"/>
<path d="M14.649 2.03416C14.6398 0.901553 13.7142 -0.00913894 12.5816 6.92177e-05C11.449 0.00927738 10.5383 0.934899 10.5475 2.0675C10.5567 3.20011 11.4823 4.1108 12.6149 4.10159C13.7476 4.09238 14.6582 3.16676 14.649 2.03416Z" fill="#F3FCFF"/>
<path fill-rule="evenodd" clip-rule="evenodd" d="M22.831 7.02419L10.8316 16.838H19.8572C20.3274 16.838 20.7231 16.5204 20.825 16.0616L22.831 7.02419Z" fill="#F3FCFF"/>
<path d="M24.7898 6.50666C24.7806 5.37405 23.855 4.46336 22.7224 4.47257C21.5898 4.48178 20.6791 5.4074 20.6883 6.54C20.6975 7.6726 21.6232 8.5833 22.7558 8.57409C23.8884 8.56488 24.7991 7.63926 24.7898 6.50666Z" fill="#F3FCFF"/>
<path d="M4.10159 6.47939C4.09238 5.34679 3.16676 4.4361 2.03416 4.4453C0.901553 4.45451 -0.00913894 5.38013 6.92177e-05 6.51274C0.00927738 7.64534 0.934899 8.55603 2.0675 8.54682C3.20011 8.53762 4.1108 7.61199 4.10159 6.47939Z" fill="#F3FCFF"/>
<path fill-rule="evenodd" clip-rule="evenodd" d="M4.93259 18.0479H20.1558C20.4288 18.0479 20.6514 18.2705 20.6514 18.5435V19.5044C20.6514 19.7774 20.4288 20 20.1558 20H4.93259C4.65962 20 4.43699 19.7774 4.43699 19.5044V18.5435C4.43699 18.2705 4.65962 18.0479 4.93259 18.0479Z" fill="#F3FCFF"/>
</svg>
