<svg width="18" height="19" viewBox="0 0 18 19" fill="none" xmlns="http://www.w3.org/2000/svg">
<path d="M10.2659 16.7673C10.1621 16.3002 10.0464 15.8408 9.96384 15.3773C9.92232 15.1438 9.93737 14.8998 9.93529 14.6606C9.93114 14.2635 9.76557 13.9682 9.41626 13.7699C9.38662 13.7468 9.36236 13.7175 9.34515 13.6841C9.32794 13.6506 9.31821 13.6139 9.31661 13.5763C9.31038 12.7147 9.31194 11.8531 9.31246 10.9915C9.31246 10.6588 9.40848 10.5623 9.73754 10.5623H15.8953C16.0894 10.5623 16.2841 10.5664 16.4782 10.5623C16.7208 10.5592 16.9526 10.4608 17.1234 10.2885C17.2943 10.1162 17.3906 9.88367 17.3917 9.641C17.399 8.90917 17.399 8.17716 17.3917 7.44498C17.387 6.92595 16.9827 6.53201 16.4611 6.52163C16.3645 6.52163 16.268 6.52163 16.1642 6.52163C16.1061 6.0545 15.8844 5.72024 15.4137 5.61592C15.246 5.57855 15.0426 5.64291 14.8993 5.57232C14.7561 5.50173 14.6917 5.30917 14.5676 5.19187C14.3922 5.02318 14.167 4.96557 13.9251 4.96609C13.226 4.96609 12.5273 4.96609 11.7971 4.96609V4.7538C11.7971 4.08685 11.8043 3.41938 11.7939 2.75242C11.7863 2.37606 11.6419 2.01534 11.3879 1.73754C11.1339 1.45973 10.7875 1.2838 10.4133 1.24256C9.67111 1.15121 8.94758 1.64066 8.74775 2.37716C8.71416 2.50877 8.69501 2.64365 8.69066 2.77941C8.66626 3.32076 8.27076 3.72249 7.7564 3.72145C7.24204 3.72042 6.84498 3.31868 6.82526 2.77578C6.80138 2.10467 6.41003 1.54827 5.80484 1.32924C5.51403 1.22265 5.19793 1.20574 4.89741 1.28069C4.59688 1.35563 4.32574 1.51899 4.11903 1.74965C3.85712 2.03409 3.71379 2.40784 3.71834 2.79446C3.71834 3.48114 3.71419 4.16782 3.71834 4.85398C3.72385 4.9035 3.71331 4.95349 3.68826 4.99657C3.66322 5.03964 3.625 5.07354 3.57924 5.09325C3.46453 5.15813 3.33062 5.24896 3.28287 5.36004C3.18529 5.58997 3.02076 5.59308 2.81938 5.591C2.33512 5.58633 1.94014 5.88166 1.87682 6.34256C1.83187 6.66974 1.83187 7.00154 1.87682 7.32872C1.93858 7.76886 2.32318 8.06263 2.76696 8.0756C2.85084 8.06925 2.93513 8.07099 3.01868 8.08079C3.08544 8.09896 3.14606 8.13483 3.19412 8.1846C3.32232 8.30917 3.42301 8.47163 3.56989 8.56349C3.69135 8.64031 3.71626 8.7135 3.71523 8.83858C3.71055 9.3955 3.71211 9.95242 3.71523 10.5099C3.71523 11.0756 4.11228 11.496 4.64273 11.496C5.17318 11.496 5.57699 11.0808 5.57699 10.5182C5.57699 10.4465 5.57699 10.3754 5.57699 10.3043C5.58218 10.0785 5.70571 9.94101 5.89464 9.94101C6.08356 9.94101 6.19567 10.0801 6.19723 10.2965C6.20086 10.7045 6.1936 11.113 6.20086 11.5209C6.2055 11.7117 6.26879 11.8965 6.38212 12.0501C6.49545 12.2036 6.65333 12.3186 6.83429 12.3792C7.01525 12.4399 7.2105 12.4434 7.3935 12.3892C7.5765 12.335 7.73837 12.2257 7.85709 12.0763C7.99879 11.8967 8.07233 11.6728 8.06471 11.4441C8.06471 10.6022 8.06471 9.75986 8.06471 8.91799V8.69585H8.29671C10.1289 8.69585 11.9616 8.69066 13.7938 8.69896C14.2479 8.70156 14.6029 8.56713 14.8199 8.14567C14.8366 8.12542 14.8573 8.10884 14.8807 8.09696C14.9041 8.08508 14.9297 8.07816 14.9559 8.07664C15.0908 8.06419 15.2294 8.08132 15.3628 8.06004C15.8009 7.98945 16.0651 7.68425 16.1621 7.14135C16.255 7.14135 16.351 7.1372 16.4465 7.14135C16.6422 7.15121 16.7642 7.26488 16.7657 7.45951C16.7706 8.17889 16.7706 8.89793 16.7657 9.61661C16.7657 9.81229 16.6427 9.92491 16.4481 9.93737C16.39 9.941 16.3313 9.93737 16.2732 9.93737H9.77024C9.0436 9.93737 8.69066 10.295 8.69066 11.0273C8.69066 11.863 8.69066 12.6986 8.69066 13.5343C8.69066 13.6593 8.66938 13.7367 8.54066 13.8047C8.24533 13.9604 8.06938 14.2266 8.07353 14.5599C8.08964 15.1236 8.0114 15.686 7.84204 16.2239C7.78702 16.3941 7.7808 16.5799 7.75069 16.7694H0V0H18V16.7647L10.2659 16.7673ZM3.71782 13.2742C3.71782 13.7164 3.82578 14.0528 4.02561 14.2889C4.3801 14.7114 4.9282 14.7083 5.27958 14.2822C5.68754 13.787 5.68235 12.9109 5.26817 12.424C4.91886 12.0125 4.37128 12.0151 4.02613 12.4313C3.83287 12.6704 3.72444 12.9669 3.71782 13.2742Z" fill="#F3F3F3"/>
<path d="M4.34169 4.95104C4.34169 4.19481 4.32716 3.45104 4.34689 2.70779C4.35986 2.22509 4.79844 1.84983 5.28477 1.85554C5.52358 1.85825 5.75208 1.95323 5.92245 2.1206C6.09281 2.28796 6.19183 2.51474 6.19879 2.75346C6.21125 3.16453 6.33166 3.52837 6.61038 3.83408C6.81957 4.06493 7.09338 4.2275 7.39621 4.30065C7.69903 4.3738 8.01685 4.35415 8.30836 4.24426C8.59986 4.13436 8.85157 3.93931 9.03073 3.68445C9.2099 3.42959 9.30824 3.12672 9.31297 2.81523C9.33633 2.14879 9.90831 1.71384 10.5176 1.89758C10.8763 2.00554 11.1633 2.33253 11.1711 2.70727C11.1862 3.45104 11.1753 4.19481 11.1753 4.9526L4.34169 4.95104Z" fill="#F3F3F3"/>
<path d="M3.71834 6.73391C3.71834 6.43754 3.71263 6.16609 3.71834 5.89516C3.72353 5.7109 3.84291 5.60138 4.02976 5.58789C4.08166 5.58425 4.13356 5.58789 4.18547 5.58789H13.814C14.2069 5.58789 14.2858 5.66834 14.2858 6.06799V6.58235C13.5348 6.81384 12.7806 6.89792 12.0062 6.77491C11.4457 6.68564 10.8851 6.55744 10.3215 6.53875C9.84394 6.52318 9.35605 6.60934 8.88374 6.70484C8.12232 6.86055 7.37024 6.87716 6.61557 6.69135C5.72741 6.46657 4.79698 6.46871 3.90986 6.69758C3.85381 6.71055 3.79619 6.71834 3.71834 6.73391Z" fill="#F3F3F3"/>
<path d="M3.7173 7.391C4.61471 7.1128 5.50588 7.05415 6.40796 7.27889C7.28966 7.50266 8.21312 7.50409 9.0955 7.28305C9.83873 7.09415 10.6171 7.09148 11.3616 7.27526C12.2677 7.50869 13.2186 7.50583 14.1234 7.26696C14.1664 7.25554 14.2116 7.25035 14.2791 7.23789C14.2791 7.4372 14.2931 7.6282 14.2744 7.81557C14.2599 7.96557 14.1503 8.05277 13.9978 8.07093C13.9333 8.07561 13.8687 8.07664 13.8042 8.07405H4.25398C3.77024 8.07405 3.71263 8.0154 3.71626 7.52335C3.71782 7.4865 3.7173 7.44654 3.7173 7.391Z" fill="#F3F3F3"/>
<path d="M4.34014 8.70363H7.43719C7.44083 8.76021 7.44706 8.80744 7.44706 8.85934C7.44706 9.70778 7.44706 10.5555 7.44706 11.4026C7.44706 11.6621 7.32664 11.8069 7.12837 11.8017C6.9301 11.7965 6.82682 11.6564 6.8263 11.4057C6.8263 11.0299 6.8263 10.6542 6.8263 10.2789C6.82163 9.72976 6.41834 9.31557 5.89204 9.31609C5.36574 9.31661 4.96609 9.73131 4.95779 10.2799C4.95779 10.377 4.96246 10.4751 4.95467 10.5716C4.95178 10.6502 4.91893 10.7248 4.86287 10.78C4.80681 10.8352 4.73177 10.8668 4.65311 10.8685C4.6125 10.8701 4.572 10.8633 4.53406 10.8488C4.49613 10.8342 4.46155 10.8121 4.43243 10.7837C4.40331 10.7554 4.38025 10.7214 4.36465 10.6839C4.34905 10.6463 4.34124 10.606 4.34169 10.5654C4.3365 9.95346 4.34014 9.33892 4.34014 8.70363Z" fill="#F3F3F3"/>
<path d="M9.6244 17.1088C9.6244 17.2189 9.63011 17.3294 9.6244 17.4394C9.61442 17.5975 9.5444 17.7457 9.42869 17.8537C9.31297 17.9618 9.16032 18.0215 9.00201 18.0206C8.84369 18.0197 8.6917 17.9584 8.57717 17.8491C8.46264 17.7398 8.39424 17.5908 8.38599 17.4327C8.36457 16.9734 8.41109 16.5134 8.52405 16.0676C8.62422 15.6841 8.64291 15.2792 8.69273 14.8827C8.70363 14.8002 8.69273 14.7145 8.69273 14.6305C8.70052 14.4296 8.82042 14.2988 8.99585 14.2952C9.17128 14.2915 9.31401 14.427 9.31142 14.6367C9.30467 15.1246 9.33789 15.6036 9.47024 16.078C9.56367 16.4112 9.60364 16.7595 9.668 17.1005L9.6244 17.1088Z" fill="#F3F3F3"/>
<path d="M3.08876 6.20865V7.45018C2.98053 7.45591 2.87207 7.45591 2.76384 7.45018C2.72476 7.44897 2.6863 7.44005 2.65067 7.42394C2.61504 7.40783 2.58294 7.38484 2.55623 7.35628C2.52951 7.32773 2.50869 7.29419 2.49498 7.25757C2.48126 7.22095 2.47491 7.18198 2.4763 7.14291C2.46903 6.96903 2.4763 6.79464 2.4763 6.62024C2.4763 6.31557 2.5801 6.21228 2.87959 6.21073L3.08876 6.20865Z" fill="#F3F3F3"/>
<path d="M14.9211 6.20865C15.0208 6.20865 15.11 6.20554 15.1993 6.20865C15.4069 6.21799 15.5211 6.33114 15.5273 6.53668C15.5329 6.72976 15.5329 6.92318 15.5273 7.11695C15.5216 7.32457 15.4069 7.43928 15.204 7.45018C15.1147 7.45433 15.0244 7.45018 14.9211 7.45018V6.20865Z" fill="#F3F3F3"/>
<path d="M4.30329 13.3552C4.36038 13.187 4.39671 13.008 4.47976 12.8543C4.5628 12.7007 4.71021 12.7043 4.82284 12.8486C5.00242 13.078 5.00658 13.6215 4.83062 13.8618C4.7128 14.0232 4.55865 14.0263 4.4673 13.8462C4.39049 13.7014 4.35986 13.5337 4.30329 13.3552Z" fill="#F3F3F3"/>
</svg>
