<svg width="16" height="16" viewBox="0 0 16 16" fill="none" xmlns="http://www.w3.org/2000/svg">
<path d="M14.8835 10.9769V10.2327C14.8835 9.16454 14.8823 8.41929 14.8067 7.85718C14.7333 7.31126 14.599 7.02216 14.3931 6.81621C14.2119 6.63504 13.9677 6.51055 13.546 6.43307C13.163 6.36272 12.6734 6.33777 12.012 6.32958L11.7175 6.32697L11.6605 6.32377C11.3793 6.29361 11.161 6.05461 11.1626 5.76564C11.1644 5.45744 11.4157 5.20899 11.7239 5.2107L12.0193 5.21332C12.6943 5.22138 13.2678 5.24704 13.7474 5.33512C14.3115 5.43873 14.7917 5.63609 15.1823 6.02668C15.6302 6.47462 15.823 7.0388 15.9131 7.70864C16.001 8.36241 15.9997 9.19615 15.9997 10.2327V10.9769C15.9997 12.0134 16.001 12.847 15.9131 13.5007C15.823 14.1706 15.6302 14.7348 15.1823 15.1827C14.7344 15.6306 14.1704 15.8231 13.5006 15.9132C12.8469 16.0011 12.0132 16.0001 10.9765 16.0001H5.02317C4.71497 16.0001 4.46511 15.7502 4.46504 15.442C4.46504 15.1337 4.71492 14.8838 5.02317 14.8838H10.9765C12.0447 14.8838 12.7897 14.8824 13.3518 14.8068C13.8978 14.7334 14.1871 14.5991 14.3931 14.3932C14.599 14.1872 14.7333 13.8982 14.8067 13.3522C14.8823 12.7901 14.8835 12.045 14.8835 10.9769ZM9.77088e-07 10.9769V10.2327C9.77088e-07 9.19615 -0.00125819 8.36241 0.0866273 7.70864C0.176685 7.0388 0.369505 6.47462 0.817428 6.02668C1.20802 5.63612 1.68801 5.43873 2.252 5.33512C2.8001 5.23444 3.47099 5.21518 4.2758 5.2107C4.58401 5.20899 4.83536 5.45744 4.83712 5.76564C4.83884 6.07385 4.59039 6.3252 4.28219 6.32697C3.46844 6.3315 2.89149 6.35266 2.45374 6.43307C2.03197 6.51055 1.78782 6.63505 1.60666 6.81621C1.40075 7.02216 1.26641 7.31126 1.193 7.85718C1.11743 8.4193 1.11626 9.16454 1.11626 10.2327V10.9769C1.11626 12.045 1.11743 12.7901 1.193 13.3522C1.26642 13.8982 1.40076 14.1872 1.60666 14.3932C1.75033 14.5368 1.93061 14.6418 2.1988 14.7179C2.4953 14.802 2.66743 15.1106 2.58338 15.4071C2.49932 15.7037 2.19071 15.876 1.89415 15.792C1.4787 15.6742 1.11992 15.4851 0.817428 15.1827C0.369478 14.7348 0.176683 14.1706 0.0866273 13.5007C-0.0012491 12.847 8.70923e-07 12.0134 9.77088e-07 10.9769Z" fill="#F3F3F3"/>
<path d="M7.44154 0.558133C7.44154 0.249885 7.69143 0 7.99967 0C8.30792 0 8.5578 0.249885 8.5578 0.558133V8.72345L9.80836 7.26445C10.009 7.03046 10.3615 7.0034 10.5956 7.20399C10.8296 7.4046 10.8566 7.75716 10.656 7.99119L8.4235 10.5958C8.31747 10.7195 8.16258 10.7906 7.99967 10.7906C7.83676 10.7906 7.68188 10.7195 7.57584 10.5958L5.34333 7.99119L5.30844 7.94584C5.147 7.71357 5.18442 7.39206 5.40379 7.20399C5.62318 7.01594 5.94659 7.02814 6.15145 7.22317L6.19099 7.26445L7.44154 8.72345V0.558133Z" fill="#F3F3F3"/>
</svg>
