<svg width="24" height="24" viewBox="0 0 24 24" fill="none" xmlns="http://www.w3.org/2000/svg">
<path d="M21.9528 16.1898V15.0921C21.9528 13.5165 21.9511 12.4173 21.8396 11.5882C21.7313 10.7829 21.5332 10.3565 21.2295 10.0527C20.9622 9.7855 20.6021 9.60188 19.98 9.48759C19.4151 9.38382 18.6931 9.34701 17.7174 9.33495L17.2831 9.33109L17.1991 9.32637C16.7842 9.28189 16.4622 8.92936 16.4646 8.50312C16.4672 8.04852 16.8379 7.68205 17.2925 7.68458L17.7282 7.68844C18.7238 7.70034 19.5698 7.73818 20.2772 7.8681C21.1091 8.02092 21.8174 8.31203 22.3936 8.88816C23.0543 9.54887 23.3386 10.381 23.4715 11.3691C23.6011 12.3334 23.5993 13.5632 23.5993 15.0921V16.1898C23.5993 17.7187 23.6011 18.9482 23.4715 19.9124C23.3386 20.9005 23.0543 21.7327 22.3936 22.3933C21.7329 23.054 20.9011 23.338 19.9132 23.4709C18.9488 23.6005 17.7192 23.5991 16.1902 23.5991H7.40907C6.95448 23.5991 6.58595 23.2304 6.58584 22.7758C6.58584 22.3211 6.95441 21.9526 7.40907 21.9526H16.1902C17.7657 21.9526 18.8645 21.9504 19.6936 21.8389C20.499 21.7306 20.9257 21.5326 21.2295 21.2288C21.5332 20.9251 21.7313 20.4987 21.8396 19.6933C21.9511 18.8642 21.9528 17.7653 21.9528 16.1898ZM1.44118e-06 16.1898V15.0921C1.44118e-06 13.5632 -0.0018558 12.3334 0.127774 11.3691C0.260606 10.381 0.545013 9.54888 1.20569 8.88816C1.78181 8.31208 2.48978 8.02093 3.32165 7.8681C4.13009 7.7196 5.11964 7.69119 6.30671 7.68458C6.76132 7.68205 7.13206 8.04852 7.13466 8.50312C7.13719 8.95774 6.77073 9.32848 6.31614 9.33109C5.11588 9.33777 4.26489 9.36898 3.61921 9.48759C2.99711 9.60188 2.637 9.7855 2.36979 10.0527C2.06607 10.3565 1.86793 10.7829 1.75965 11.5882C1.64818 12.4173 1.64646 13.5165 1.64646 15.0921V16.1898C1.64646 17.7653 1.64819 18.8642 1.75965 19.6933C1.86794 20.4987 2.06609 20.9251 2.36979 21.2288C2.5817 21.4407 2.84762 21.5956 3.24318 21.7077C3.68052 21.8318 3.9344 22.287 3.81044 22.7244C3.68645 23.1618 3.23126 23.416 2.79384 23.2921C2.18105 23.1184 1.65186 22.8395 1.20569 22.3933C0.544972 21.7327 0.260604 20.9005 0.127774 19.9124C-0.0018424 18.9482 1.28459e-06 17.7187 1.44118e-06 16.1898Z" fill="#F3F3F3"/>
<path d="M10.9766 0.823252C10.9766 0.368582 11.3451 0 11.7998 0C12.2545 0 12.623 0.368582 12.623 0.823252V12.8672L14.4676 10.7151C14.7635 10.37 15.2835 10.3301 15.6287 10.626C15.9738 10.9219 16.0137 11.4419 15.7179 11.7871L12.4249 15.6289C12.2685 15.8114 12.0401 15.9162 11.7998 15.9162C11.5595 15.9162 11.3311 15.8114 11.1747 15.6289L7.88175 11.7871L7.83029 11.7202C7.59217 11.3776 7.64737 10.9034 7.97093 10.626C8.29452 10.3486 8.77155 10.3666 9.07371 10.6543L9.13203 10.7151L10.9766 12.8672V0.823252Z" fill="#F3F3F3"/>
</svg>
