<svg width="20" height="24" viewBox="0 0 20 24" fill="none" xmlns="http://www.w3.org/2000/svg">
<path d="M6.05127 11.7996C6.05127 10.6299 5.10303 9.6816 3.93333 9.6816C2.76362 9.6816 1.81538 10.6299 1.81538 11.7996C1.81538 12.9693 2.76362 13.9175 3.93333 13.9175C5.10303 13.9175 6.05127 12.9693 6.05127 11.7996ZM7.86665 11.7996C7.86665 13.9719 6.10564 15.7329 3.93333 15.7329C1.76101 15.7329 0 13.9719 0 11.7996C0 9.62725 1.76101 7.86621 3.93333 7.86621C6.10564 7.86621 7.86665 9.62725 7.86665 11.7996Z" fill="#F3F3F3"/>
<path d="M12.4903 4.39948C12.901 4.11202 13.467 4.21194 13.7544 4.62262C14.0419 5.0333 13.942 5.5993 13.5313 5.88678L7.48003 10.1227C7.06935 10.4102 6.50335 10.3102 6.21588 9.89955C5.92843 9.48887 6.02835 8.92287 6.43902 8.6354L12.4903 4.39948Z" fill="#F3F3F3"/>
<path d="M6.21586 13.6988C6.48542 13.3137 6.99987 13.2019 7.40153 13.4264L7.48001 13.4756L13.5313 17.7115C13.942 17.999 14.0419 18.565 13.7544 18.9757C13.4849 19.3608 12.9704 19.4726 12.5687 19.248L12.4903 19.1988L6.439 14.9629L6.36572 14.9057C6.01742 14.6052 5.94637 14.0838 6.21586 13.6988Z" fill="#F3F3F3"/>
<path d="M18.1538 19.6658C18.1538 18.4961 17.2056 17.5478 16.0359 17.5478C14.8662 17.5478 13.9179 18.4961 13.9179 19.6658C13.9179 20.8355 14.8662 21.7837 16.0359 21.7837C17.2056 21.7837 18.1538 20.8355 18.1538 19.6658ZM19.9692 19.6658C19.9692 21.8381 18.2082 23.5991 16.0359 23.5991C13.8636 23.5991 12.1025 21.8381 12.1025 19.6658C12.1025 17.4935 13.8636 15.7324 16.0359 15.7324C18.2082 15.7324 19.9692 17.4935 19.9692 19.6658Z" fill="#F3F3F3"/>
<path d="M18.1538 3.93335C18.1538 2.76364 17.2056 1.81539 16.0359 1.81539C14.8662 1.81539 13.9179 2.76364 13.9179 3.93335C13.9179 5.10306 14.8662 6.05131 16.0359 6.05131C17.2056 6.05131 18.1538 5.10306 18.1538 3.93335ZM19.9692 3.93335C19.9692 6.10568 18.2082 7.86671 16.0359 7.86671C13.8636 7.86671 12.1025 6.10568 12.1025 3.93335C12.1025 1.76102 13.8636 0 16.0359 0C18.2082 0 19.9692 1.76102 19.9692 3.93335Z" fill="#F3F3F3"/>
</svg>
