<svg width="29" height="35" viewBox="0 0 29 35" fill="none" xmlns="http://www.w3.org/2000/svg">
<path d="M12.8889 33.4091V31.8182H4.83333C2.16392 31.8182 0 29.6812 0 27.0455V7.95455C0 5.31864 2.16396 3.18182 4.83333 3.18182H12.8889V1.59091C12.8889 0.712274 13.6102 0 14.5 0C15.3898 0 16.1111 0.712274 16.1111 1.59091V3.18182L16.276 3.1899C17.0883 3.27143 17.7222 3.94906 17.7222 4.77273C17.7222 5.65136 17.0009 6.36364 16.1111 6.36364V28.6364C17.0009 28.6364 17.7222 29.3487 17.7222 30.2273C17.7222 31.1059 17.0009 31.8182 16.1111 31.8182V33.4091C16.1111 34.2877 15.3898 35 14.5 35C13.6102 35 12.8889 34.2877 12.8889 33.4091ZM25.7778 27.0455V25.4545C25.7778 24.5759 26.4991 23.8636 27.3889 23.8636C28.2787 23.8636 29 24.5759 29 25.4545V27.0455C29 29.6812 26.8361 31.8182 24.1667 31.8182H22.5556C21.6658 31.8182 20.9444 31.1059 20.9444 30.2273C20.9445 29.3487 21.6658 28.6364 22.5556 28.6364H24.1667C25.0565 28.6364 25.7778 27.924 25.7778 27.0455ZM25.7778 19.0909V15.9091C25.7778 15.0305 26.4991 14.3182 27.3889 14.3182C28.2787 14.3182 29 15.0305 29 15.9091V19.0909C29 19.9695 28.2787 20.6818 27.3889 20.6818C26.4991 20.6818 25.7778 19.9695 25.7778 19.0909ZM25.7778 9.54545V7.95455C25.7778 7.07589 25.0565 6.36364 24.1667 6.36364H22.5556C21.6658 6.36364 20.9444 5.65136 20.9444 4.77273C20.9444 3.89409 21.6658 3.18182 22.5556 3.18182H24.1667C26.8361 3.18182 29 5.31866 29 7.95455V9.54545C29 10.4241 28.2787 11.1364 27.3889 11.1364C26.4991 11.1364 25.7778 10.4241 25.7778 9.54545ZM3.22222 27.0455C3.22222 27.924 3.94358 28.6364 4.83333 28.6364H12.8889V6.36364H4.83333C3.94354 6.36364 3.22222 7.07591 3.22222 7.95455V27.0455Z" fill="black"/>
</svg>
