<svg width="65" height="65" viewBox="0 0 65 65" fill="none" xmlns="http://www.w3.org/2000/svg">
<path d="M10.0727 19.5002C12.233 19.5002 14.2836 19.4739 16.3334 19.5087C18.0212 19.5376 19.2824 20.7424 19.4897 22.4311C19.6707 23.9117 18.6535 25.3907 17.151 25.8475C16.7787 25.9613 16.3997 25.9647 16.0207 25.9647C11.8548 25.9681 7.68918 25.9681 3.52385 25.9647C1.32107 25.9604 0.0148721 24.6606 0.00637377 22.4735C-0.00212459 18.285 -0.00212459 14.0965 0.00637377 9.90801C0.0123226 7.93489 1.37546 6.49665 3.21366 6.47542C5.068 6.4542 6.45663 7.91876 6.47788 9.93094C6.48638 10.718 6.47788 11.5042 6.47788 12.2912V12.9704C7.03367 12.3056 7.46709 11.7623 7.9226 11.241C13.6046 4.79861 20.7058 1.04764 29.262 0.170604C46.2375 -1.56819 61.6722 10.1695 64.5302 26.9215C65.043 29.9006 65.1366 32.9366 64.8081 35.9415C64.6016 37.8289 63.0498 39.0973 61.164 38.919C59.404 38.7492 58.1896 37.1887 58.3596 35.3166C59.6054 21.8817 51.2923 10.2519 38.1989 7.11219C27.5759 4.56513 15.702 9.65925 10.258 19.1054C10.218 19.1963 10.1781 19.2871 10.0727 19.5002Z" fill="#F3FCFF"/>
<path d="M32.538 64.9995C18.5344 64.7448 6.63922 56.3998 2.01611 43.6747C1.28865 41.671 2.04075 39.8261 3.8492 39.1749C5.64321 38.5305 7.34119 39.4296 8.10349 41.4138C11.2479 49.5941 17.0506 54.9336 25.4325 57.4602C28.2497 58.3093 31.146 58.592 34.0847 58.4086C34.6677 58.3721 35.2515 58.3237 35.8337 58.3339C37.5588 58.3712 38.8863 59.6719 39.0035 61.4056C39.1115 63.0188 37.8529 64.5139 36.1991 64.7533C34.9345 64.941 33.6683 64.9622 32.538 64.9995Z" fill="#F3FCFF"/>
<path d="M29.2759 25.9166C29.2759 23.7346 29.2513 21.5518 29.2844 19.3698C29.3091 17.7252 30.5065 16.4381 32.1297 16.2165C33.6509 16.0085 35.1619 17.0197 35.6268 18.5462C35.7627 18.9937 35.7457 19.4487 35.7466 19.9047C35.7466 23.4069 35.7585 26.9082 35.7364 30.4104C35.7364 30.9105 35.8902 31.2535 36.2386 31.5991C38.9983 34.3318 41.7461 37.0769 44.4821 39.8346C46.3602 41.7389 45.5579 44.7181 43.0161 45.343C41.9402 45.6079 40.9085 45.4109 40.1131 44.6256C36.7704 41.3263 33.4464 38.0089 30.1411 34.6734C29.5062 34.0358 29.2598 33.219 29.2657 32.3139C29.2802 30.1821 29.27 28.051 29.27 25.9191L29.2759 25.9166Z" fill="#F3FCFF"/>
<path d="M45.5843 58.451C45.5673 57.5358 45.8996 56.7666 46.5361 56.1238C47.2517 55.403 47.9545 54.6695 48.6964 53.9775C49.0261 53.6693 49.072 53.4885 48.7117 53.1591C48.0004 52.5096 47.3358 51.8083 46.6576 51.1214C45.2775 49.7239 45.2129 47.7466 46.5089 46.434C47.8338 45.0891 49.8097 45.1392 51.2553 46.5613C51.9606 47.2558 52.6694 47.9478 53.3493 48.6669C53.6042 48.942 53.758 48.9276 54.0096 48.6669C54.7107 47.9325 55.433 47.2185 56.1605 46.5095C57.5993 45.107 59.5412 45.1155 60.9816 46.5206C62.1875 47.6965 62.1051 49.7469 60.7879 51.0985C60.1326 51.7709 59.4927 52.4637 58.7848 53.0784C58.314 53.4868 58.4338 53.7143 58.8196 54.0692C59.5097 54.7051 60.1632 55.3827 60.8151 56.0576C62.1442 57.4356 62.1748 59.4274 60.9 60.6933C59.5955 61.9906 57.5721 61.9668 56.1911 60.6245C55.4815 59.9351 54.7719 59.2423 54.0946 58.5215C53.8039 58.2116 53.6297 58.1819 53.3229 58.5096C52.592 59.2847 51.845 60.0489 51.0564 60.7646C49.9966 61.7274 48.744 61.9286 47.4514 61.3462C46.2463 60.7977 45.6276 59.7865 45.5843 58.451Z" fill="#F3FCFF"/>
</svg>
