<svg width="20" height="20" viewBox="0 0 20 20" fill="none" xmlns="http://www.w3.org/2000/svg">
<path d="M9.99995 0.000104263C8.02215 0.000104263 6.08876 0.586591 4.44428 1.6854C2.7998 2.78421 1.51808 4.34599 0.761205 6.17324C0.00433286 8.00049 -0.193699 10.0111 0.192151 11.9509C0.578001 13.8907 1.5304 15.6726 2.92892 17.0711C4.32744 18.4696 6.10926 19.422 8.04906 19.8078C9.98886 20.1937 11.9995 19.9957 13.8268 19.2388C15.654 18.4819 17.2158 17.2002 18.3146 15.5557C19.4134 13.9112 19.9999 11.9779 19.9999 10.0001C20.0059 8.68515 19.7514 7.3821 19.251 6.16613C18.7505 4.95016 18.0142 3.84538 17.0844 2.9156C16.1546 1.98582 15.0498 1.24946 13.8339 0.749047C12.6179 0.248635 11.3148 -0.00591366 9.99995 0.000104263ZM14.8636 5.7728L11.8181 11.8182L5.7727 14.8637C5.68398 14.8945 5.58838 14.8997 5.49684 14.8787C5.4053 14.8577 5.32152 14.8113 5.25511 14.7449C5.1887 14.6785 5.14234 14.5947 5.12133 14.5032C5.10033 14.4116 5.10553 14.316 5.13634 14.2273L8.18178 8.18188L14.2272 5.13644C14.3159 5.10563 14.4115 5.10043 14.5031 5.12143C14.5946 5.14244 14.6784 5.1888 14.7448 5.25521C14.8112 5.32162 14.8576 5.4054 14.8786 5.49694C14.8996 5.58848 14.8944 5.68408 14.8636 5.7728ZM9.99995 9.09096C9.82015 9.09096 9.64439 9.14428 9.49489 9.24417C9.34539 9.34406 9.22887 9.48604 9.16006 9.65216C9.09126 9.81827 9.07326 10.0011 9.10833 10.1774C9.14341 10.3538 9.22999 10.5157 9.35713 10.6429C9.48427 10.77 9.64625 10.8566 9.8226 10.8917C9.99894 10.9267 10.1817 10.9087 10.3478 10.8399C10.514 10.7711 10.6559 10.6546 10.7558 10.5051C10.8557 10.3556 10.909 10.1799 10.909 10.0001C10.909 9.75895 10.8133 9.52772 10.6428 9.35723C10.4723 9.18674 10.2411 9.09096 9.99995 9.09096Z" fill="#F3FCFF"/>
</svg>
