<svg width="20" height="20" viewBox="0 0 20 20" fill="none" xmlns="http://www.w3.org/2000/svg">
<path d="M9.93739 6.86607C9.1798 6.8668 8.7533 6.41261 8.79263 5.70056C8.8361 4.91359 8.87296 4.1263 8.90323 3.33869C8.97402 1.57645 10.4444 0.107295 12.2029 0.0242523C12.6651 0.0025203 13.0866 0.0566682 13.4534 0.359095C13.5192 0.413607 13.5995 0.449058 13.6698 0.498593C14.1116 0.808061 14.5703 0.831129 14.9917 0.495922C15.8835 -0.21395 16.8224 -0.0698388 17.7429 0.355453C18.9875 0.930441 19.653 1.95124 19.7623 3.31234C19.8273 4.12067 19.8427 4.93326 19.873 5.74426C19.899 6.43944 19.4717 6.8685 18.735 6.8651V6.24301C18.735 5.92297 18.7387 5.60294 18.7336 5.28303C18.7289 4.99518 18.5599 4.80954 18.3208 4.81683C18.0859 4.82363 17.9373 4.99615 17.9369 5.28146C17.9348 6.663 17.9343 8.04445 17.9356 9.42583C17.9356 10.2321 17.5516 10.6144 16.7438 10.6145C15.1279 10.6145 13.5121 10.6145 11.8963 10.6145C11.1229 10.6145 10.736 10.2247 10.7356 9.44489C10.7356 8.10245 10.7356 6.76004 10.7356 5.41768C10.7356 5.35515 10.7378 5.29262 10.7346 5.23034C10.7224 4.98971 10.5613 4.82059 10.3439 4.81671C10.1184 4.81258 9.94321 4.98765 9.93969 5.24042C9.93362 5.69303 9.93775 6.14576 9.93775 6.59837C9.93727 6.68299 9.93739 6.76761 9.93739 6.86607Z" fill="url(#paint0_linear_754_175)"/>
<path d="M1.13969 16.2434C0.446329 16.282 -0.0247335 15.8485 0.00100492 15.1957C0.0374273 14.2762 0.0461688 13.3523 0.148758 12.4398C0.339612 10.7401 1.79566 9.46382 3.51479 9.40664C3.9033 9.39365 4.26242 9.44245 4.56849 9.6968C5.2162 10.2351 5.85044 10.2334 6.51187 9.70239C7.13359 9.20316 7.83825 9.3809 8.50295 9.57418C9.94127 9.99207 10.9125 11.286 10.973 12.7838C11.0038 13.5477 11.0382 14.3115 11.0801 15.0749C11.1207 15.8142 10.7186 16.2463 9.93714 16.2553C9.93714 16.0399 9.93714 15.8243 9.93714 15.6084C9.93714 15.2728 9.94419 14.9371 9.93338 14.6019C9.92549 14.3611 9.75127 14.2083 9.52266 14.2157C9.30485 14.2226 9.15382 14.3736 9.14156 14.608C9.13427 14.7481 9.13925 14.8888 9.13925 15.0293C9.13925 16.3167 9.13925 17.6041 9.13925 18.8915C9.13865 19.5957 8.74152 19.9978 8.04051 19.9986C6.37059 20.0006 4.70058 20.0006 3.03049 19.9986C2.34405 19.9977 1.94171 19.5941 1.94025 18.9051C1.9375 17.5553 1.93722 16.2055 1.9394 14.8557C1.9394 14.7854 1.94122 14.7151 1.93855 14.6449C1.92799 14.3765 1.78254 14.2178 1.54689 14.2157C1.31124 14.2137 1.14819 14.3736 1.14309 14.6368C1.13435 15.0891 1.14017 15.5419 1.13993 15.9943L1.13969 16.2434Z" fill="url(#paint1_linear_754_175)"/>
<path d="M14.4266 17.3895C14.5965 17.5508 14.7351 17.6727 14.8629 17.8044C15.2133 18.1655 15.2242 18.6493 14.8945 18.9726C14.5679 19.2928 14.0791 19.2755 13.7248 18.9241C13.2424 18.4465 12.7625 17.9664 12.2851 17.4838C11.7697 16.9605 11.7675 16.2555 12.2814 15.7319C12.7624 15.2419 13.2481 14.7562 13.7383 14.275C14.0882 13.9298 14.5625 13.9167 14.8889 14.2333C15.2228 14.5573 15.2179 15.0429 14.8689 15.4007C14.7728 15.4993 14.6557 15.5771 14.5757 15.6945C15.3307 15.5749 15.9286 15.2081 16.4018 14.6375C16.9052 14.0305 17.1302 13.3229 17.1354 12.5398C17.1365 12.3604 17.131 12.1807 17.1381 12.0015C17.1556 11.5523 17.4737 11.2286 17.903 11.2156C18.3444 11.2022 18.7055 11.5127 18.7285 11.9668C18.765 12.694 18.7393 13.4212 18.4867 14.1149C17.8202 15.9447 16.5199 17.0234 14.6016 17.3595C14.5657 17.3665 14.5302 17.3722 14.4266 17.3895Z" fill="url(#paint2_linear_754_175)"/>
<path d="M5.25821 4.10028C4.81131 4.17871 4.40835 4.36859 4.04717 4.64127C3.17206 5.30234 2.75017 6.19347 2.7396 7.28529C2.7379 7.46474 2.7441 7.64442 2.73657 7.82362C2.71787 8.27149 2.39663 8.59783 1.96939 8.60925C1.53123 8.62139 1.16725 8.30464 1.146 7.85397C1.10958 7.0789 1.14321 6.30614 1.43447 5.57344C2.13123 3.82007 3.41002 2.77912 5.27521 2.46662C5.30539 2.46105 5.33516 2.45347 5.36432 2.44391C5.3699 2.44221 5.37258 2.43177 5.40791 2.37107C5.28261 2.25949 5.13814 2.14379 5.00859 2.01328C4.65821 1.6612 4.65081 1.17192 4.98371 0.846914C5.30568 0.532711 5.78937 0.545216 6.13526 0.88625C6.62413 1.3684 7.10976 1.85403 7.59215 2.34314C8.10741 2.86896 8.10547 3.57252 7.5907 4.0947C7.11405 4.57774 6.63408 5.05766 6.1508 5.53447C5.79726 5.88473 5.3041 5.90355 4.98104 5.58558C4.64474 5.25475 4.66234 4.77021 5.02741 4.40161C5.11373 4.31444 5.20953 4.23699 5.30155 4.15504L5.25821 4.10028Z" fill="url(#paint3_linear_754_175)"/>
<defs>
<linearGradient id="paint0_linear_754_175" x1="-2.67295e-07" y1="0.14112" x2="21.5787" y2="2.22728" gradientUnits="userSpaceOnUse">
<stop stop-color="#3B7FFF"/>
<stop offset="1" stop-color="#2CAA78"/>
</linearGradient>
<linearGradient id="paint1_linear_754_175" x1="-2.67295e-07" y1="0.14112" x2="21.5787" y2="2.22728" gradientUnits="userSpaceOnUse">
<stop stop-color="#3B7FFF"/>
<stop offset="1" stop-color="#2CAA78"/>
</linearGradient>
<linearGradient id="paint2_linear_754_175" x1="-2.67295e-07" y1="0.14112" x2="21.5787" y2="2.22728" gradientUnits="userSpaceOnUse">
<stop stop-color="#3B7FFF"/>
<stop offset="1" stop-color="#2CAA78"/>
</linearGradient>
<linearGradient id="paint3_linear_754_175" x1="-2.67295e-07" y1="0.14112" x2="21.5787" y2="2.22728" gradientUnits="userSpaceOnUse">
<stop stop-color="#3B7FFF"/>
<stop offset="1" stop-color="#2CAA78"/>
</linearGradient>
</defs>
</svg>
