<svg width="24" height="20" viewBox="0 0 24 20" fill="none" xmlns="http://www.w3.org/2000/svg">
<path d="M19.2557 9.09576C19.2976 9.35188 19.4243 9.45634 19.6779 9.44982C20.135 9.43837 20.5504 9.55268 20.914 9.83249C21.2053 10.0537 21.4217 10.3589 21.5341 10.7069C21.6182 10.9613 21.7609 11.0686 21.9652 11.0379C22.1719 11.0061 22.2791 10.8584 22.2811 10.5998C22.2888 9.67764 22.6983 9.09052 23.5749 8.74425C23.8093 8.65172 23.9048 8.50943 23.8654 8.31134C23.826 8.11324 23.6746 8.00529 23.4361 8.00577C22.5188 8.00768 21.904 7.58812 21.579 6.72293C21.5037 6.52277 21.39 6.40623 21.1703 6.42865C20.9396 6.45202 20.8382 6.60973 20.8399 6.8986C20.8449 7.66379 20.5061 8.23105 19.8374 8.59862C19.7301 8.65744 19.608 8.68876 19.4938 8.73566C19.3124 8.81039 19.2356 8.94632 19.2557 9.09576Z" fill="url(#paint0_linear_754_177)"/>
<path d="M12.7101 3.56009C12.7558 3.7275 12.8574 3.84181 13.0472 3.8496C13.8545 3.88278 14.4168 4.27059 14.7342 5.01305C14.8137 5.19795 14.9567 5.26361 15.1475 5.22656C15.3668 5.1838 15.4435 5.02895 15.4526 4.82147C15.4822 4.14849 15.7962 3.64865 16.3779 3.31462C16.4379 3.2795 16.5007 3.24935 16.5657 3.22448C16.7698 3.14896 16.8655 3.0019 16.8248 2.79125C16.7833 2.57805 16.6211 2.51589 16.4175 2.48139C16.1472 2.43544 15.8688 2.38043 15.6226 2.26771C15.2532 2.09887 15.0025 1.79267 14.8391 1.41683C14.7308 1.16643 14.582 1.06564 14.3857 1.11206C14.1605 1.16532 14.0927 1.32955 14.0788 1.54465C14.0311 2.28313 13.6686 2.80842 12.9901 3.10731C12.7891 3.19538 12.6725 3.32305 12.7101 3.56009Z" fill="url(#paint1_linear_754_177)"/>
<path d="M20.4757 0.00362291C20.2943 0.0564056 20.1821 0.167377 20.1736 0.364994C20.1447 1.02605 19.8256 1.48514 19.2162 1.74227C19.0367 1.81811 18.9592 1.96596 18.9956 2.15563C19.032 2.3453 19.1584 2.45102 19.353 2.45945C20.015 2.48822 20.4714 2.80921 20.7304 3.41717C20.8073 3.59777 20.9549 3.67377 21.1437 3.63974C21.3326 3.60572 21.4398 3.47551 21.4477 3.28203C21.4752 2.61907 21.7957 2.16374 22.4042 1.90443C22.584 1.8278 22.6622 1.67995 22.6268 1.49108C22.5913 1.3022 22.464 1.19409 22.2695 1.18599C21.607 1.15816 21.1511 0.838607 20.8919 0.22938C20.8145 0.0497284 20.6668 -0.017045 20.4757 0.00362291Z" fill="url(#paint2_linear_754_177)"/>
<path d="M17.6555 1.01984C17.4498 1.05164 17.3154 1.23368 17.3471 1.43606C17.3626 1.53241 17.4153 1.61883 17.4938 1.67681C17.5723 1.73479 17.6704 1.75971 17.7671 1.74624C17.9618 1.71699 18.1065 1.51953 18.0768 1.32366C18.0693 1.27595 18.0524 1.23021 18.0271 1.18906C18.0018 1.14792 17.9686 1.11219 17.9295 1.08394C17.8903 1.0557 17.8459 1.03549 17.7989 1.02449C17.7519 1.01348 17.7031 1.0119 17.6555 1.01984Z" fill="url(#paint3_linear_754_177)"/>
<path d="M21.8426 4.78762C21.6399 4.82911 21.5182 5.01544 21.5603 5.21942C21.5696 5.2668 21.5881 5.31189 21.6149 5.35206C21.6417 5.39224 21.6761 5.42671 21.7163 5.4535C21.7565 5.48028 21.8016 5.49884 21.849 5.50811C21.8964 5.51738 21.9451 5.51717 21.9924 5.5075C22.0876 5.4864 22.1707 5.42879 22.2238 5.34706C22.277 5.26534 22.296 5.16601 22.2767 5.07045C22.2673 5.02309 22.2485 4.97809 22.2215 4.9381C22.1945 4.8981 22.1597 4.86392 22.1193 4.83756C22.0788 4.8112 22.0335 4.79321 21.986 4.78463C21.9385 4.77605 21.8898 4.77707 21.8426 4.78762Z" fill="url(#paint4_linear_754_177)"/>
<path d="M0 18.2637V7.63613C0.00874412 7.62023 0.0235296 7.60624 0.0255964 7.59002C0.133229 6.72229 0.933713 5.89287 2.09239 5.89589C6.86874 5.90813 11.6451 5.90066 16.4215 5.90113C17.6572 5.90113 18.5068 6.75329 18.508 7.99146C18.5087 8.955 18.5087 9.91871 18.508 10.8826C18.508 13.2377 18.508 15.5927 18.508 17.9477C18.508 18.2586 18.4588 18.5569 18.3151 18.851C18.2674 18.806 18.2278 18.7715 18.1911 18.7329C16.8344 17.3302 15.4778 15.9274 14.1211 14.5243C13.7318 14.1216 13.345 13.7163 12.9515 13.3177C12.696 13.0591 12.3775 13.0665 12.1248 13.3255C12.0612 13.3901 12.0017 13.4578 11.9397 13.5236C11.6726 13.8077 11.4053 14.0917 11.1301 14.3842C11.0767 14.3286 11.0348 14.2869 10.9952 14.2433C10.0756 13.232 9.15615 12.2205 8.2368 11.209C7.93616 10.8783 7.61867 10.8761 7.31072 11.2026C5.01287 13.6388 2.71502 16.0748 0.417174 18.5106C0.335456 18.5973 0.252466 18.6828 0.149922 18.7901C0.0942775 18.5954 0.0470592 18.4295 0 18.2637ZM12.0014 10.235C12.0027 11.4354 12.976 12.4096 14.1709 12.4069C14.4559 12.4066 14.7381 12.3501 15.0012 12.2407C15.2644 12.1313 15.5035 11.9711 15.7048 11.7693C15.906 11.5675 16.0656 11.328 16.1743 11.0646C16.283 10.8011 16.3387 10.5188 16.3383 10.2338C16.3369 9.03741 15.3626 8.06952 14.1602 8.07015C12.9793 8.07079 12.0001 9.05267 12.0014 10.235Z" fill="url(#paint5_linear_754_177)"/>
<path d="M7.76494 12.302L10.3847 15.1818C10.161 15.4216 9.94413 15.6545 9.72664 15.8868C9.48816 16.1411 9.24651 16.3944 9.00962 16.6513C8.77687 16.9039 8.77512 17.227 9.00024 17.4426C9.22775 17.6602 9.56464 17.6408 9.80311 17.3874C10.674 16.4616 11.5436 15.5345 12.4117 14.6062C12.4526 14.5626 12.4923 14.5179 12.5481 14.4567L17.5909 19.6733C17.2979 19.88 16.9806 19.9647 16.644 19.9946C16.5722 20.001 16.4995 19.9983 16.4273 19.9983C11.644 19.9983 6.86074 19.9988 2.07744 20C1.63785 20 1.23483 19.8992 0.84675 19.6359L7.76494 12.302Z" fill="url(#paint6_linear_754_177)"/>
<path d="M15.2539 10.2317C15.2553 10.4464 15.1928 10.6568 15.0744 10.836C14.9561 11.0152 14.7871 11.1552 14.5891 11.2382C14.391 11.3212 14.1727 11.3435 13.962 11.3023C13.7512 11.261 13.5574 11.1581 13.4053 11.0066C13.2531 10.855 13.1494 10.6616 13.1073 10.451C13.0652 10.2404 13.0867 10.0221 13.1689 9.82368C13.2511 9.62529 13.3905 9.45579 13.5692 9.33672C13.7479 9.21764 13.958 9.15435 14.1728 9.15488C14.4584 9.15605 14.7321 9.26973 14.9344 9.4713C15.1368 9.67286 15.2516 9.94607 15.2539 10.2317Z" fill="url(#paint7_linear_754_177)"/>
<defs>
<linearGradient id="paint0_linear_754_177" x1="-3.2109e-07" y1="0.141119" x2="25.8158" y2="3.13922" gradientUnits="userSpaceOnUse">
<stop stop-color="#3B7FFF"/>
<stop offset="1" stop-color="#2CAA78"/>
</linearGradient>
<linearGradient id="paint1_linear_754_177" x1="-3.2109e-07" y1="0.141119" x2="25.8158" y2="3.13922" gradientUnits="userSpaceOnUse">
<stop stop-color="#3B7FFF"/>
<stop offset="1" stop-color="#2CAA78"/>
</linearGradient>
<linearGradient id="paint2_linear_754_177" x1="-3.2109e-07" y1="0.141119" x2="25.8158" y2="3.13922" gradientUnits="userSpaceOnUse">
<stop stop-color="#3B7FFF"/>
<stop offset="1" stop-color="#2CAA78"/>
</linearGradient>
<linearGradient id="paint3_linear_754_177" x1="-3.2109e-07" y1="0.141119" x2="25.8158" y2="3.13922" gradientUnits="userSpaceOnUse">
<stop stop-color="#3B7FFF"/>
<stop offset="1" stop-color="#2CAA78"/>
</linearGradient>
<linearGradient id="paint4_linear_754_177" x1="-3.2109e-07" y1="0.141119" x2="25.8158" y2="3.13922" gradientUnits="userSpaceOnUse">
<stop stop-color="#3B7FFF"/>
<stop offset="1" stop-color="#2CAA78"/>
</linearGradient>
<linearGradient id="paint5_linear_754_177" x1="-3.2109e-07" y1="0.141119" x2="25.8158" y2="3.13922" gradientUnits="userSpaceOnUse">
<stop stop-color="#3B7FFF"/>
<stop offset="1" stop-color="#2CAA78"/>
</linearGradient>
<linearGradient id="paint6_linear_754_177" x1="-3.2109e-07" y1="0.141119" x2="25.8158" y2="3.13922" gradientUnits="userSpaceOnUse">
<stop stop-color="#3B7FFF"/>
<stop offset="1" stop-color="#2CAA78"/>
</linearGradient>
<linearGradient id="paint7_linear_754_177" x1="-3.2109e-07" y1="0.141119" x2="25.8158" y2="3.13922" gradientUnits="userSpaceOnUse">
<stop stop-color="#3B7FFF"/>
<stop offset="1" stop-color="#2CAA78"/>
</linearGradient>
</defs>
</svg>
