<svg width="14" height="16" viewBox="0 0 14 16" fill="none" xmlns="http://www.w3.org/2000/svg">
<path d="M4.10259 7.99993C4.10259 7.20691 3.45971 6.56403 2.66668 6.56403C1.87366 6.56403 1.23078 7.20691 1.23078 7.99993C1.23078 8.79295 1.87366 9.43583 2.66668 9.43583C3.45971 9.43583 4.10259 8.79295 4.10259 7.99993ZM5.33336 7.99993C5.33336 9.47268 4.13945 10.6666 2.66668 10.6666C1.19391 10.6666 0 9.47268 0 7.99993C0 6.52718 1.19391 5.33325 2.66668 5.33325C4.13945 5.33325 5.33336 6.52718 5.33336 7.99993Z" fill="#F3F3F3"/>
<path d="M8.46768 2.9831C8.74611 2.78821 9.12984 2.85596 9.32474 3.13438C9.51962 3.41281 9.45188 3.79654 9.17346 3.99144L5.07087 6.86324C4.79244 7.05813 4.40871 6.99038 4.21381 6.71196C4.01893 6.43353 4.08667 6.0498 4.36509 5.85491L8.46768 2.9831Z" fill="#F3F3F3"/>
<path d="M4.21379 9.28816C4.39655 9.02708 4.74533 8.95129 5.01764 9.10355L5.07085 9.13688L9.17344 12.0087C9.45186 12.2036 9.51961 12.5873 9.32472 12.8657C9.14196 13.1268 8.79319 13.2026 8.52087 13.0504L8.46767 13.017L4.36508 10.1452L4.3154 10.1064C4.07926 9.90267 4.03109 9.54919 4.21379 9.28816Z" fill="#F3F3F3"/>
<path d="M12.3077 13.3334C12.3077 12.5404 11.6648 11.8975 10.8718 11.8975C10.0787 11.8975 9.43585 12.5404 9.43585 13.3334C9.43585 14.1264 10.0787 14.7693 10.8718 14.7693C11.6648 14.7693 12.3077 14.1264 12.3077 13.3334ZM13.5384 13.3334C13.5384 14.8062 12.3445 16.0001 10.8718 16.0001C9.399 16.0001 8.20508 14.8062 8.20508 13.3334C8.20508 11.8607 9.399 10.6667 10.8718 10.6667C12.3445 10.6667 13.5384 11.8607 13.5384 13.3334Z" fill="#F3F3F3"/>
<path d="M12.3077 2.66668C12.3077 1.87365 11.6648 1.23077 10.8718 1.23077C10.0787 1.23077 9.43585 1.87365 9.43585 2.66668C9.43585 3.4597 10.0787 4.10258 10.8718 4.10258C11.6648 4.10258 12.3077 3.4597 12.3077 2.66668ZM13.5384 2.66668C13.5384 4.13944 12.3445 5.33335 10.8718 5.33335C9.399 5.33335 8.20508 4.13944 8.20508 2.66668C8.20508 1.19391 9.399 0 10.8718 0C12.3445 0 13.5384 1.19391 13.5384 2.66668Z" fill="#F3F3F3"/>
</svg>
