<svg width="16" height="20" viewBox="0 0 16 20" fill="none" xmlns="http://www.w3.org/2000/svg">
<path d="M8 20C5.68333 19.4167 3.77067 18.0873 2.262 16.012C0.753334 13.9367 -0.000666225 11.6327 4.41696e-07 9.1V3L8 0L16 3V9.1C16 10.15 15.8623 11.171 15.587 12.163C15.3117 13.155 14.916 14.1007 14.4 15L11.45 12.05C11.6333 11.7333 11.771 11.4043 11.863 11.063C11.955 10.7217 12.0007 10.3673 12 10C12 8.9 11.6083 7.95833 10.825 7.175C10.0417 6.39167 9.1 6 8 6C6.9 6 5.95833 6.39167 5.175 7.175C4.39167 7.95833 4 8.9 4 10C4 11.1 4.39167 12.0417 5.175 12.825C5.95833 13.6083 6.9 14 8 14C8.35 14 8.696 13.9543 9.038 13.863C9.38 13.7717 9.70067 13.634 10 13.45L13.225 16.65C12.525 17.4667 11.7373 18.1667 10.862 18.75C9.98667 19.3333 9.03267 19.75 8 20ZM8 12C7.45 12 6.97933 11.8043 6.588 11.413C6.19667 11.0217 6.00067 10.5507 6 10C5.99933 9.44933 6.19533 8.97867 6.588 8.588C6.98067 8.19733 7.45133 8.00133 8 8C8.54867 7.99867 9.01967 8.19467 9.413 8.588C9.80633 8.98133 10.002 9.452 10 10C9.998 10.548 9.80233 11.019 9.413 11.413C9.02367 11.807 8.55267 12.0027 8 12Z" fill="white"/>
</svg>
