<svg width="22" height="22" viewBox="0 0 22 22" fill="none" xmlns="http://www.w3.org/2000/svg">
<path d="M10.2319 14.0695V2.84228L8.51242 4.84838C8.23658 5.17013 7.75181 5.20733 7.43003 4.93152C7.10829 4.65568 7.07108 4.17091 7.34689 3.84913L10.4166 0.2678L10.4746 0.207445C10.616 0.0748618 10.8034 0 10.9994 0C11.2234 0 11.4363 0.0977436 11.5821 0.2678L14.6518 3.84913L14.6998 3.91148C14.9218 4.23085 14.8703 4.67292 14.5687 4.93152C14.267 5.19009 13.8224 5.17331 13.5407 4.90514L13.4863 4.84838L11.7668 2.84228V14.0695C11.7668 14.4933 11.4232 14.8369 10.9994 14.8369C10.5755 14.8369 10.2319 14.4933 10.2319 14.0695Z" fill="#1E1E1E"/>
<path d="M20.4647 15.0931V14.0698C20.4647 12.6011 20.4631 11.5763 20.3592 10.8034C20.2583 10.0528 20.0736 9.6553 19.7904 9.37212C19.5413 9.12301 19.2056 8.95185 18.6257 8.84531C18.0991 8.74857 17.426 8.71427 16.5165 8.70302L16.1116 8.69942L16.0332 8.69502C15.6465 8.65356 15.3463 8.32493 15.3486 7.92759C15.351 7.50382 15.6966 7.1622 16.1204 7.16456L16.5265 7.16816C17.4547 7.17925 18.2432 7.21452 18.9027 7.33564C19.6783 7.4781 20.3385 7.74947 20.8756 8.28653C21.4915 8.90244 21.7567 9.67818 21.8805 10.5992C22.0013 11.4981 21.9996 12.6445 21.9996 14.0698V15.0931C21.9996 16.5182 22.0013 17.6644 21.8805 18.5633C21.7567 19.4843 21.4916 20.2601 20.8756 20.8759C20.2598 21.4918 19.4843 21.7566 18.5634 21.8804C17.6644 22.0013 16.5181 21.9999 15.0927 21.9999H6.90685C6.48308 21.9999 6.13953 21.6562 6.13942 21.2325C6.13942 20.8086 6.48301 20.465 6.90685 20.465H15.0927C16.5615 20.465 17.5858 20.463 18.3587 20.3591C19.1095 20.2582 19.5072 20.0736 19.7904 19.7903C20.0736 19.5072 20.2583 19.1097 20.3592 18.359C20.4631 17.5861 20.4647 16.5617 20.4647 15.0931ZM1.3435e-06 15.0931V14.0698C1.3435e-06 12.6445 -0.00173001 11.4981 0.119113 10.5992C0.242941 9.67818 0.50807 8.90244 1.12396 8.28653C1.66103 7.74951 2.32101 7.4781 3.09649 7.33564C3.85014 7.1972 4.77261 7.17073 5.87922 7.16456C6.30301 7.1622 6.64862 7.50382 6.65104 7.92759C6.6534 8.35138 6.31179 8.69699 5.88801 8.69942C4.7691 8.70565 3.9758 8.73475 3.37389 8.84531C2.79396 8.95184 2.45825 9.12302 2.20915 9.37212C1.92603 9.65531 1.74132 10.0528 1.64038 10.8034C1.53646 11.5763 1.53486 12.6011 1.53486 14.0698V15.0931C1.53486 16.5617 1.53647 17.5861 1.64038 18.359C1.74132 19.1097 1.92604 19.5072 2.20915 19.7903C2.40671 19.9879 2.65459 20.1323 3.02335 20.2368C3.43104 20.3524 3.66771 20.7768 3.55215 21.1845C3.43657 21.5923 3.01223 21.8293 2.60446 21.7137C2.03321 21.5518 1.53989 21.2918 1.12396 20.8759C0.508032 20.2601 0.242939 19.4843 0.119113 18.5633C-0.00171752 17.6644 1.19752e-06 16.5182 1.3435e-06 15.0931Z" fill="#1E1E1E"/>
</svg>
